<svg xmlns="http://www.w3.org/2000/svg" viewBox="0 0 58.17 53.33"><path d="M10.84,19c-13.26-7.7,8-28.9,15-10.57,0,.25-.06.25,0,0,1.28-15.89,23.65-6.53,17.26,6,4.19-4.43,13.21.55,14.84,5.17C59.43,23.9,53.76,36.16,50.36,32c11.07-.92,1.19,26.27-7.32,11.87C44,53,31,57.79,28.41,47.64,23.25,50,18,55.58,11.45,49.11c-4.54-4.44-3.35-11.4,0-15.62C6.37,36-.56,34.68,0,27.82.3,24.17,8.48,14.69,10.84,19Z" style="fill:#9bd2cc"/><path d="M29.56,42.58C41.94,42.66,46,28,38.67,19.36c-9.5-11.26-28.23-1-23.46,13.23C17.15,38.32,23.77,42.5,29.56,42.58Z" style="fill:#f7dba7"/></svg>